<?xml version="1.0" encoding="UTF-8" standalone="no"?>
<!DOCTYPE svg PUBLIC "-//W3C//DTD SVG 1.1//EN"
 "http://www.w3.org/Graphics/SVG/1.1/DTD/svg11.dtd">
<!-- Generated by graphviz version 2.43.0 (0)
 -->
<!-- Title: %3 Pages: 1 -->
<svg width="893pt" height="1640pt"
 viewBox="0.00 0.00 893.23 1640.00" xmlns="http://www.w3.org/2000/svg" xmlns:xlink="http://www.w3.org/1999/xlink">
<g id="graph0" class="graph" transform="scale(1 1) rotate(0) translate(4 1636)">
<title>%3</title>
<polygon fill="white" stroke="transparent" points="-4,4 -4,-1636 889.23,-1636 889.23,4 -4,4"/>
<g id="clust1" class="cluster">
<title>cluster_NetworkDetails</title>
<polygon fill="#8dd3c7" stroke="#8dd3c7" points="601.25,-8 601.25,-785 877.23,-785 877.23,-8 601.25,-8"/>
<text text-anchor="middle" x="739.24" y="-769.8" font-family="Times,serif" font-size="14.00">NetworkDetails</text>
</g>
<g id="clust2" class="cluster">
<title>cluster_NetworkConfig</title>
<polygon fill="#ffffb3" stroke="#ffffb3" points="8,-793 8,-1624 827.19,-1624 827.19,-793 8,-793"/>
<text text-anchor="middle" x="417.59" y="-1608.8" font-family="Times,serif" font-size="14.00">NetworkConfig</text>
</g>
<!-- NetworkDetails__addToken -->
<g id="node1" class="node">
<title>NetworkDetails__addToken</title>
<ellipse fill="none" stroke="black" cx="739.24" cy="-574" rx="59.59" ry="18"/>
<text text-anchor="middle" x="739.24" y="-570.3" font-family="Times,serif" font-size="14.00">_addToken</text>
</g>
<!-- NetworkDetails__addPriceFeed -->
<g id="node2" class="node">
<title>NetworkDetails__addPriceFeed</title>
<ellipse fill="none" stroke="black" cx="739.24" cy="-466" rx="78.79" ry="18"/>
<text text-anchor="middle" x="739.24" y="-462.3" font-family="Times,serif" font-size="14.00">_addPriceFeed</text>
</g>
<!-- NetworkDetails_setVRFCoordinatorConfig -->
<g id="node3" class="node">
<title>NetworkDetails_setVRFCoordinatorConfig</title>
<ellipse fill="none" stroke="black" cx="739.24" cy="-628" rx="129.98" ry="18"/>
<text text-anchor="middle" x="739.24" y="-624.3" font-family="Times,serif" font-size="14.00">setVRFCoordinatorConfig</text>
</g>
<!-- NetworkDetails_setLinkToken -->
<g id="node4" class="node">
<title>NetworkDetails_setLinkToken</title>
<ellipse fill="none" stroke="black" cx="739.24" cy="-412" rx="72.29" ry="18"/>
<text text-anchor="middle" x="739.24" y="-408.3" font-family="Times,serif" font-size="14.00">setLinkToken</text>
</g>
<!-- NetworkDetails_getpriceFeed -->
<g id="node5" class="node">
<title>NetworkDetails_getpriceFeed</title>
<ellipse fill="none" stroke="black" cx="739.24" cy="-520" rx="71.49" ry="18"/>
<text text-anchor="middle" x="739.24" y="-516.3" font-family="Times,serif" font-size="14.00">getpriceFeed</text>
</g>
<!-- NetworkDetails__getTokenAddress -->
<g id="node6" class="node">
<title>NetworkDetails__getTokenAddress</title>
<ellipse fill="none" stroke="black" cx="739.24" cy="-358" rx="94.78" ry="18"/>
<text text-anchor="middle" x="739.24" y="-354.3" font-family="Times,serif" font-size="14.00">_getTokenAddress</text>
</g>
<!-- NetworkDetails__getPriceFeed -->
<g id="node7" class="node">
<title>NetworkDetails__getPriceFeed</title>
<ellipse fill="none" stroke="black" cx="739.24" cy="-736" rx="76.89" ry="18"/>
<text text-anchor="middle" x="739.24" y="-732.3" font-family="Times,serif" font-size="14.00">_getPriceFeed</text>
</g>
<!-- NetworkDetails__getPrivateKey -->
<g id="node8" class="node">
<title>NetworkDetails__getPrivateKey</title>
<ellipse fill="none" stroke="black" cx="739.24" cy="-34" rx="81.49" ry="18"/>
<text text-anchor="middle" x="739.24" y="-30.3" font-family="Times,serif" font-size="14.00">_getPrivateKey</text>
</g>
<!-- NetworkDetails_getvrfCoordinatorConfig -->
<g id="node9" class="node">
<title>NetworkDetails_getvrfCoordinatorConfig</title>
<ellipse fill="none" stroke="black" cx="739.24" cy="-304" rx="124.28" ry="18"/>
<text text-anchor="middle" x="739.24" y="-300.3" font-family="Times,serif" font-size="14.00">getvrfCoordinatorConfig</text>
</g>
<!-- NetworkDetails_getvrfCoordinator -->
<g id="node10" class="node">
<title>NetworkDetails_getvrfCoordinator</title>
<ellipse fill="none" stroke="black" cx="739.24" cy="-250" rx="94.78" ry="18"/>
<text text-anchor="middle" x="739.24" y="-246.3" font-family="Times,serif" font-size="14.00">getvrfCoordinator</text>
</g>
<!-- NetworkDetails_getPriceFeedCount -->
<g id="node11" class="node">
<title>NetworkDetails_getPriceFeedCount</title>
<ellipse fill="none" stroke="black" cx="739.24" cy="-196" rx="100.18" ry="18"/>
<text text-anchor="middle" x="739.24" y="-192.3" font-family="Times,serif" font-size="14.00">getPriceFeedCount</text>
</g>
<!-- NetworkDetails_getTokenCount -->
<g id="node12" class="node">
<title>NetworkDetails_getTokenCount</title>
<ellipse fill="none" stroke="black" cx="739.24" cy="-142" rx="81.49" ry="18"/>
<text text-anchor="middle" x="739.24" y="-138.3" font-family="Times,serif" font-size="14.00">getTokenCount</text>
</g>
<!-- NetworkDetails_getTokenNames -->
<g id="node13" class="node">
<title>NetworkDetails_getTokenNames</title>
<ellipse fill="none" stroke="black" cx="739.24" cy="-88" rx="85.29" ry="18"/>
<text text-anchor="middle" x="739.24" y="-84.3" font-family="Times,serif" font-size="14.00">getTokenNames</text>
</g>
<!-- NetworkDetails_getChainId -->
<g id="node14" class="node">
<title>NetworkDetails_getChainId</title>
<ellipse fill="none" stroke="black" cx="739.24" cy="-682" rx="61.99" ry="18"/>
<text text-anchor="middle" x="739.24" y="-678.3" font-family="Times,serif" font-size="14.00">getChainId</text>
</g>
<!-- NetworkConfig_setActiveNetwork -->
<g id="node15" class="node">
<title>NetworkConfig_setActiveNetwork</title>
<ellipse fill="none" stroke="black" cx="146.64" cy="-1575" rx="93.68" ry="18"/>
<text text-anchor="middle" x="146.64" y="-1571.3" font-family="Times,serif" font-size="14.00">setActiveNetwork</text>
</g>
<!-- NetworkConfig_setup_development_chain -->
<g id="node18" class="node">
<title>NetworkConfig_setup_development_chain</title>
<ellipse fill="none" stroke="black" cx="443.27" cy="-1575" rx="129.98" ry="18"/>
<text text-anchor="middle" x="443.27" y="-1571.3" font-family="Times,serif" font-size="14.00">setup_development_chain</text>
</g>
<!-- NetworkConfig_setActiveNetwork&#45;&gt;NetworkConfig_setup_development_chain -->
<g id="edge1" class="edge">
<title>NetworkConfig_setActiveNetwork&#45;&gt;NetworkConfig_setup_development_chain</title>
<path fill="none" stroke="black" d="M240.46,-1575C260.4,-1575 281.91,-1575 303.18,-1575"/>
<polygon fill="black" stroke="black" points="303.26,-1578.5 313.26,-1575 303.26,-1571.5 303.26,-1578.5"/>
</g>
<!-- NetworkConfig_setNetworkToChainId -->
<g id="node16" class="node">
<title>NetworkConfig_setNetworkToChainId</title>
<ellipse fill="none" stroke="black" cx="146.64" cy="-1521" rx="111.58" ry="18"/>
<text text-anchor="middle" x="146.64" y="-1517.3" font-family="Times,serif" font-size="14.00">setNetworkToChainId</text>
</g>
<!-- NetworkConfig_getActiveNetworkChainId -->
<g id="node17" class="node">
<title>NetworkConfig_getActiveNetworkChainId</title>
<ellipse fill="none" stroke="black" cx="146.64" cy="-1359" rx="130.78" ry="18"/>
<text text-anchor="middle" x="146.64" y="-1355.3" font-family="Times,serif" font-size="14.00">getActiveNetworkChainId</text>
</g>
<!-- NetworkConfig_getActiveNetworkChainId&#45;&gt;NetworkDetails_getChainId -->
<g id="edge5" class="edge">
<title>NetworkConfig_getActiveNetworkChainId&#45;&gt;NetworkDetails_getChainId</title>
<path fill="none" stroke="black" d="M247.75,-1347.5C258.31,-1343.62 268.41,-1338.57 277.28,-1332 497.23,-1169.13 463.31,-1042.63 573.25,-792 588.89,-756.35 571.99,-734.67 601.25,-709 619.35,-693.13 644.02,-685.5 667.45,-682.12"/>
<polygon fill="black" stroke="black" points="667.88,-685.6 677.39,-680.92 667.04,-678.65 667.88,-685.6"/>
</g>
<!-- NetworkConfig_createNetwork -->
<g id="node19" class="node">
<title>NetworkConfig_createNetwork</title>
<ellipse fill="none" stroke="black" cx="739.24" cy="-1575" rx="79.89" ry="18"/>
<text text-anchor="middle" x="739.24" y="-1571.3" font-family="Times,serif" font-size="14.00">createNetwork</text>
</g>
<!-- NetworkConfig_setup_development_chain&#45;&gt;NetworkConfig_createNetwork -->
<g id="edge2" class="edge">
<title>NetworkConfig_setup_development_chain&#45;&gt;NetworkConfig_createNetwork</title>
<path fill="none" stroke="black" d="M573.64,-1575C599.11,-1575 625.3,-1575 649.09,-1575"/>
<polygon fill="black" stroke="black" points="649.13,-1578.5 659.13,-1575 649.13,-1571.5 649.13,-1578.5"/>
</g>
<!-- NetworkConfig_addToken -->
<g id="node20" class="node">
<title>NetworkConfig_addToken</title>
<ellipse fill="none" stroke="black" cx="146.64" cy="-1251" rx="55.49" ry="18"/>
<text text-anchor="middle" x="146.64" y="-1247.3" font-family="Times,serif" font-size="14.00">addToken</text>
</g>
<!-- NetworkConfig_addToken&#45;&gt;NetworkDetails__addToken -->
<g id="edge6" class="edge">
<title>NetworkConfig_addToken&#45;&gt;NetworkDetails__addToken</title>
<path fill="none" stroke="black" d="M201.41,-1253.84C228.13,-1252.18 258.62,-1245.09 277.28,-1224 341.11,-1151.85 264.23,-874.91 313.28,-792 323.05,-775.48 583.5,-608.3 601.25,-601 623.61,-591.81 649.35,-585.68 672.43,-581.62"/>
<polygon fill="black" stroke="black" points="673.19,-585.04 682.48,-579.95 672.04,-578.14 673.19,-585.04"/>
</g>
<!-- NetworkConfig_addPriceFeed -->
<g id="node21" class="node">
<title>NetworkConfig_addPriceFeed</title>
<ellipse fill="none" stroke="black" cx="146.64" cy="-1143" rx="74.19" ry="18"/>
<text text-anchor="middle" x="146.64" y="-1139.3" font-family="Times,serif" font-size="14.00">addPriceFeed</text>
</g>
<!-- NetworkConfig_addPriceFeed&#45;&gt;NetworkDetails__addPriceFeed -->
<g id="edge7" class="edge">
<title>NetworkConfig_addPriceFeed&#45;&gt;NetworkDetails__addPriceFeed</title>
<path fill="none" stroke="black" d="M220.92,-1143.73C242.02,-1140.14 263.12,-1132.18 277.28,-1116 350.48,-1032.32 248.85,-707.61 313.28,-617 333.47,-588.61 567.98,-503.32 601.25,-493 621.15,-486.83 643.13,-481.76 663.54,-477.75"/>
<polygon fill="black" stroke="black" points="664.26,-481.18 673.42,-475.86 662.95,-474.3 664.26,-481.18"/>
</g>
<!-- NetworkConfig_addVrfCoordinator -->
<g id="node22" class="node">
<title>NetworkConfig_addVrfCoordinator</title>
<ellipse fill="none" stroke="black" cx="146.64" cy="-1305" rx="97.48" ry="18"/>
<text text-anchor="middle" x="146.64" y="-1301.3" font-family="Times,serif" font-size="14.00">addVrfCoordinator</text>
</g>
<!-- NetworkConfig_addLinkToken -->
<g id="node23" class="node">
<title>NetworkConfig_addLinkToken</title>
<ellipse fill="none" stroke="black" cx="146.64" cy="-1089" rx="75.29" ry="18"/>
<text text-anchor="middle" x="146.64" y="-1085.3" font-family="Times,serif" font-size="14.00">addLinkToken</text>
</g>
<!-- NetworkConfig_addLinkToken&#45;&gt;NetworkDetails_setLinkToken -->
<g id="edge8" class="edge">
<title>NetworkConfig_addLinkToken&#45;&gt;NetworkDetails_setLinkToken</title>
<path fill="none" stroke="black" d="M222.01,-1089.62C242.77,-1085.95 263.41,-1077.97 277.28,-1062 359.02,-967.82 232.01,-596.58 313.28,-502 357.42,-450.62 548.87,-427.03 659.15,-417.53"/>
<polygon fill="black" stroke="black" points="659.57,-421.01 669.24,-416.68 658.98,-414.03 659.57,-421.01"/>
</g>
<!-- NetworkConfig_create_mocks -->
<g id="node24" class="node">
<title>NetworkConfig_create_mocks</title>
<ellipse fill="none" stroke="black" cx="146.64" cy="-1197" rx="73.39" ry="18"/>
<text text-anchor="middle" x="146.64" y="-1193.3" font-family="Times,serif" font-size="14.00">create_mocks</text>
</g>
<!-- NetworkConfig_getPriceFeed -->
<g id="node25" class="node">
<title>NetworkConfig_getPriceFeed</title>
<ellipse fill="none" stroke="black" cx="443.27" cy="-1467" rx="72.29" ry="18"/>
<text text-anchor="middle" x="443.27" y="-1463.3" font-family="Times,serif" font-size="14.00">getPriceFeed</text>
</g>
<!-- NetworkConfig_getPriceFeed&#45;&gt;NetworkDetails__getPriceFeed -->
<g id="edge9" class="edge">
<title>NetworkConfig_getPriceFeed&#45;&gt;NetworkDetails__getPriceFeed</title>
<path fill="none" stroke="black" d="M515.45,-1468.22C537.12,-1464.81 558.97,-1456.83 573.25,-1440 620.1,-1384.8 559.05,-847.83 601.25,-789 615.95,-768.51 639.73,-755.94 663.39,-748.23"/>
<polygon fill="black" stroke="black" points="664.56,-751.54 673.13,-745.32 662.55,-744.83 664.56,-751.54"/>
</g>
<!-- NetworkConfig_getAllPriceFeeds -->
<g id="node26" class="node">
<title>NetworkConfig_getAllPriceFeeds</title>
<ellipse fill="none" stroke="black" cx="146.64" cy="-1467" rx="89.08" ry="18"/>
<text text-anchor="middle" x="146.64" y="-1463.3" font-family="Times,serif" font-size="14.00">getAllPriceFeeds</text>
</g>
<!-- NetworkConfig_getAllPriceFeeds&#45;&gt;NetworkConfig_getPriceFeed -->
<g id="edge3" class="edge">
<title>NetworkConfig_getAllPriceFeeds&#45;&gt;NetworkConfig_getPriceFeed</title>
<path fill="none" stroke="black" d="M236.04,-1467C275.56,-1467 321.85,-1467 360.56,-1467"/>
<polygon fill="black" stroke="black" points="360.74,-1470.5 370.74,-1467 360.74,-1463.5 360.74,-1470.5"/>
</g>
<!-- NetworkConfig_getTokens -->
<g id="node27" class="node">
<title>NetworkConfig_getTokens</title>
<ellipse fill="none" stroke="black" cx="443.27" cy="-1413" rx="57.69" ry="18"/>
<text text-anchor="middle" x="443.27" y="-1409.3" font-family="Times,serif" font-size="14.00">getTokens</text>
</g>
<!-- NetworkConfig_getTokenAddress -->
<g id="node28" class="node">
<title>NetworkConfig_getTokenAddress</title>
<ellipse fill="none" stroke="black" cx="146.64" cy="-1035" rx="90.98" ry="18"/>
<text text-anchor="middle" x="146.64" y="-1031.3" font-family="Times,serif" font-size="14.00">getTokenAddress</text>
</g>
<!-- NetworkConfig_getTokenAddress&#45;&gt;NetworkDetails__getTokenAddress -->
<g id="edge10" class="edge">
<title>NetworkConfig_getTokenAddress&#45;&gt;NetworkDetails__getTokenAddress</title>
<path fill="none" stroke="black" d="M236.82,-1032.22C252.28,-1027.7 266.75,-1020.17 277.28,-1008 362.66,-909.35 225.18,-518.23 313.28,-422 400.74,-326.46 565.02,-331.07 661.7,-343.93"/>
<polygon fill="black" stroke="black" points="661.31,-347.41 671.7,-345.32 662.28,-340.48 661.31,-347.41"/>
</g>
<!-- NetworkConfig_getAllTokenAddresses -->
<g id="node29" class="node">
<title>NetworkConfig_getAllTokenAddresses</title>
<ellipse fill="none" stroke="black" cx="146.64" cy="-1413" rx="113.18" ry="18"/>
<text text-anchor="middle" x="146.64" y="-1409.3" font-family="Times,serif" font-size="14.00">getAllTokenAddresses</text>
</g>
<!-- NetworkConfig_getAllTokenAddresses&#45;&gt;NetworkConfig_getTokens -->
<g id="edge4" class="edge">
<title>NetworkConfig_getAllTokenAddresses&#45;&gt;NetworkConfig_getTokens</title>
<path fill="none" stroke="black" d="M259.86,-1413C298.62,-1413 340.82,-1413 374.86,-1413"/>
<polygon fill="black" stroke="black" points="375.15,-1416.5 385.15,-1413 375.15,-1409.5 375.15,-1416.5"/>
</g>
<!-- NetworkConfig_get_vrfcoordinator_config -->
<g id="node30" class="node">
<title>NetworkConfig_get_vrfcoordinator_config</title>
<ellipse fill="none" stroke="black" cx="146.64" cy="-981" rx="129.18" ry="18"/>
<text text-anchor="middle" x="146.64" y="-977.3" font-family="Times,serif" font-size="14.00">get_vrfcoordinator_config</text>
</g>
<!-- NetworkConfig_get_vrfcoordinator_config&#45;&gt;NetworkDetails_getvrfCoordinatorConfig -->
<g id="edge11" class="edge">
<title>NetworkConfig_get_vrfcoordinator_config&#45;&gt;NetworkDetails_getvrfCoordinatorConfig</title>
<path fill="none" stroke="black" d="M255.04,-971.12C263.43,-966.82 271.05,-961.22 277.28,-954 367.56,-849.32 216.03,-431.24 313.28,-333 354.52,-291.33 507.68,-290.16 618.31,-295.3"/>
<polygon fill="black" stroke="black" points="618.39,-298.8 628.55,-295.79 618.73,-291.81 618.39,-298.8"/>
</g>
<!-- NetworkConfig_get_linktoken -->
<g id="node31" class="node">
<title>NetworkConfig_get_linktoken</title>
<ellipse fill="none" stroke="black" cx="146.64" cy="-927" rx="73.39" ry="18"/>
<text text-anchor="middle" x="146.64" y="-923.3" font-family="Times,serif" font-size="14.00">get_linktoken</text>
</g>
<!-- NetworkConfig_isMock -->
<g id="node32" class="node">
<title>NetworkConfig_isMock</title>
<ellipse fill="none" stroke="black" cx="146.64" cy="-873" rx="43.59" ry="18"/>
<text text-anchor="middle" x="146.64" y="-869.3" font-family="Times,serif" font-size="14.00">isMock</text>
</g>
<!-- NetworkConfig_getPrivateKey -->
<g id="node33" class="node">
<title>NetworkConfig_getPrivateKey</title>
<ellipse fill="none" stroke="black" cx="146.64" cy="-819" rx="76.89" ry="18"/>
<text text-anchor="middle" x="146.64" y="-815.3" font-family="Times,serif" font-size="14.00">getPrivateKey</text>
</g>
<!-- NetworkConfig_getPrivateKey&#45;&gt;NetworkDetails__getPrivateKey -->
<g id="edge12" class="edge">
<title>NetworkConfig_getPrivateKey&#45;&gt;NetworkDetails__getPrivateKey</title>
<path fill="none" stroke="black" d="M149.42,-800.88C157.17,-729.58 193.17,-463.8 313.28,-289 405.72,-154.45 453.01,-129.37 601.25,-61 618.14,-53.21 637.21,-47.67 655.63,-43.72"/>
<polygon fill="black" stroke="black" points="656.37,-47.14 665.49,-41.74 654.99,-40.28 656.37,-47.14"/>
</g>
</g>
</svg>
